<svg xmlns="http://www.w3.org/2000/svg" version="1.1" xmlns:xlink="http://www.w3.org/1999/xlink" xmlns:svgjs="http://svgjs.dev/svgjs" width="1500" height="299" viewBox="0 0 1500 299"><g transform="matrix(1,0,0,1,-0.9090909090909918,-1.800683875619967)"><svg viewBox="0 0 396 79" data-background-color="#ffffff" preserveAspectRatio="xMidYMid meet" height="299" width="1500" xmlns="http://www.w3.org/2000/svg" xmlns:xlink="http://www.w3.org/1999/xlink"><g id="tight-bounds" transform="matrix(1,0,0,1,0.2400000000000091,0.4757659738260145)"><svg viewBox="0 0 395.52 78.04846805234796" height="78.04846805234796" width="395.52"><g><svg viewBox="0 0 395.52 78.04846805234796" height="78.04846805234796" width="395.52"><g><svg viewBox="0 0 395.52 78.04846805234796" height="78.04846805234796" width="395.52"><g id="textblocktransform"><svg viewBox="0 0 395.52 78.04846805234796" height="78.04846805234796" width="395.52" id="textblock"><g><svg viewBox="0 0 395.52 78.04846805234796" height="78.04846805234796" width="395.52"><g transform="matrix(1,0,0,1,0,0)"><svg width="395.52" viewBox="-0.1 -37.7 194.82999999999998 38.45" height="78.04846805234796" data-palette-color="#705c53"><path d="M24.95 0L18.5 0 16.8-8.1 7.9-8.1 6.25 0-0.1 0 8.6-34.55 16.3-34.55 24.95 0ZM12.35-29.7L8.9-12.9 15.85-12.9 12.35-29.7ZM40.05-27.15Q42.9-27.15 44.55-25.1 46.2-23.05 46.2-19.6L46.2-19.6 46.2 0 40.05 0 40.05-18.9Q40.05-20.8 39.52-21.63 39-22.45 38-22.45L38-22.45Q35.9-22.45 33.85-18.5L33.85-18.5 33.85 0 27.7 0 27.7-26.45 33.05-26.45 33.5-23Q34.85-25.1 36.37-26.13 37.9-27.15 40.05-27.15L40.05-27.15ZM62.9-5L65.05-1.2Q62.6 0.75 59.3 0.75L59.3 0.75Q55.85 0.75 54.05-1.23 52.25-3.2 52.25-6.6L52.25-6.6 52.25-22 49.15-22 49.15-26.45 52.25-26.45 52.25-32.3 58.4-33.05 58.4-26.45 63.4-26.45 62.8-22 58.4-22 58.4-6.6Q58.4-4.2 60.45-4.2L60.45-4.2Q61.1-4.2 61.6-4.38 62.1-4.55 62.9-5L62.9-5ZM76.99-27.15Q81.99-27.15 84.77-23.65 87.54-20.15 87.54-13.25L87.54-13.25Q87.54-6.65 84.74-2.95 81.94 0.75 76.99 0.75L76.99 0.75Q72.04 0.75 69.24-2.88 66.44-6.5 66.44-13.25L66.44-13.25Q66.44-19.95 69.24-23.55 72.04-27.15 76.99-27.15L76.99-27.15ZM76.99-22.5Q74.84-22.5 73.84-20.38 72.84-18.25 72.84-13.25L72.84-13.25Q72.84-8.2 73.84-6.08 74.84-3.95 76.99-3.95L76.99-3.95Q79.14-3.95 80.14-6.08 81.14-8.2 81.14-13.25L81.14-13.25Q81.14-18.3 80.14-20.4 79.14-22.5 76.99-22.5L76.99-22.5ZM104.44-27.15Q107.29-27.15 108.94-25.1 110.59-23.05 110.59-19.6L110.59-19.6 110.59 0 104.44 0 104.44-18.9Q104.44-20.8 103.92-21.63 103.39-22.45 102.39-22.45L102.39-22.45Q100.29-22.45 98.24-18.5L98.24-18.5 98.24 0 92.09 0 92.09-26.45 97.44-26.45 97.89-23Q99.24-25.1 100.77-26.13 102.29-27.15 104.44-27.15L104.44-27.15ZM138.24 0L131.79 0 130.09-8.1 121.19-8.1 119.54 0 113.19 0 121.89-34.55 129.59-34.55 138.24 0ZM125.64-29.7L122.19-12.9 129.14-12.9 125.64-29.7ZM158.44-26.45L152.34-14.15 159.49 0 152.99 0 148.59-10.65 144.29 0 137.94 0 145.09-13.95 138.64-26.45 145.04-26.45 148.69-17.25 152.24-26.45 158.44-26.45ZM181.03-13.85Q181.03-13.4 180.88-11.3L180.88-11.3 167.23-11.3Q167.43-7.2 168.66-5.58 169.88-3.95 172.13-3.95L172.13-3.95Q173.68-3.95 174.93-4.48 176.18-5 177.63-6.15L177.63-6.15 180.18-2.65Q176.68 0.75 171.78 0.75L171.78 0.75Q166.58 0.75 163.81-2.85 161.03-6.45 161.03-13L161.03-13Q161.03-19.55 163.68-23.35 166.33-27.15 171.18-27.15L171.18-27.15Q175.83-27.15 178.43-23.78 181.03-20.4 181.03-13.85L181.03-13.85ZM175.03-15.3L175.03-15.65Q175.03-19.4 174.13-21.13 173.23-22.85 171.23-22.85L171.23-22.85Q169.38-22.85 168.41-21.18 167.43-19.5 167.23-15.3L167.23-15.3 175.03-15.3ZM190.93 0.75Q188.23 0.75 186.66-0.93 185.08-2.6 185.08-5.4L185.08-5.4 185.08-37.05 191.23-37.7 191.23-5.65Q191.23-5 191.53-4.6 191.83-4.2 192.43-4.2L192.43-4.2Q192.78-4.2 193.11-4.3 193.43-4.4 193.53-4.4L193.53-4.4 194.73-0.2Q193.03 0.75 190.93 0.75L190.93 0.75Z" opacity="1" transform="matrix(1,0,0,1,0,0)" fill="#705c53" class="wordmark-text-0" data-fill-palette-color="primary" id="text-0"></path></svg></g></svg></g></svg></g></svg></g><g></g></svg></g><defs></defs></svg><rect width="395.52" height="78.04846805234796" fill="none" stroke="none" visibility="hidden"></rect></g></svg></g></svg>